<mxfile host="app.diagrams.net" modified="2024-01-17T19:22:38.525Z" agent="Mozilla/5.0 (Windows NT 10.0; Win64; x64) AppleWebKit/537.36 (KHTML, like Gecko) Chrome/120.0.0.0 Safari/537.36" etag="58jj1MSBGzBLbVd3YLIU" version="22.1.19" type="github">
  <diagram name="Page-1" id="bd83a815-5ea8-2e97-e5ec-87c9f400f2fa">
    <mxGraphModel dx="3328" dy="1828" grid="1" gridSize="10" guides="1" tooltips="1" connect="1" arrows="1" fold="1" page="1" pageScale="1.5" pageWidth="1169" pageHeight="826" background="none" math="0" shadow="0">
      <root>
        <mxCell id="0" style=";html=1;" />
        <mxCell id="1" style=";html=1;" parent="0" />
        <mxCell id="1516e18e63f93b96-3" value="EstratÃ©gia de desenvolvimento de e-commerce social" style="text;strokeColor=none;fillColor=none;html=1;fontSize=24;fontStyle=1;verticalAlign=middle;align=center;rounded=0;shadow=1;" parent="1" vertex="1">
          <mxGeometry x="97" y="30" width="780" height="40" as="geometry" />
        </mxCell>
        <mxCell id="wp4WdSBtoDWt7Q6JzphJ-1" value="Cross-Functional Flowchart" style="shape=table;childLayout=tableLayout;startSize=40;collapsible=0;recursiveResize=0;expand=0;" vertex="1" parent="1">
          <mxGeometry x="70" y="150" width="980" height="520" as="geometry" />
        </mxCell>
        <mxCell id="wp4WdSBtoDWt7Q6JzphJ-2" value="" style="shape=tableRow;horizontal=0;swimlaneHead=0;swimlaneBody=0;top=0;left=0;strokeColor=inherit;bottom=0;right=0;dropTarget=0;fontStyle=0;fillColor=none;points=[[0,0.5],[1,0.5]];portConstraint=eastwest;startSize=40;collapsible=0;recursiveResize=0;expand=0;" vertex="1" parent="wp4WdSBtoDWt7Q6JzphJ-1">
          <mxGeometry y="40" width="980" height="120" as="geometry" />
        </mxCell>
        <mxCell id="wp4WdSBtoDWt7Q6JzphJ-3" value="" style="swimlane;swimlaneHead=0;swimlaneBody=0;fontStyle=0;strokeColor=inherit;connectable=0;fillColor=none;startSize=40;collapsible=0;recursiveResize=0;expand=0;" vertex="1" parent="wp4WdSBtoDWt7Q6JzphJ-2">
          <mxGeometry x="40" width="236" height="120" as="geometry">
            <mxRectangle width="236" height="120" as="alternateBounds" />
          </mxGeometry>
        </mxCell>
        <mxCell id="wp4WdSBtoDWt7Q6JzphJ-4" value="" style="swimlane;swimlaneHead=0;swimlaneBody=0;fontStyle=0;strokeColor=inherit;connectable=0;fillColor=none;startSize=40;collapsible=0;recursiveResize=0;expand=0;" vertex="1" parent="wp4WdSBtoDWt7Q6JzphJ-2">
          <mxGeometry x="276" width="234" height="120" as="geometry">
            <mxRectangle width="234" height="120" as="alternateBounds" />
          </mxGeometry>
        </mxCell>
        <mxCell id="wp4WdSBtoDWt7Q6JzphJ-5" value="" style="swimlane;swimlaneHead=0;swimlaneBody=0;fontStyle=0;strokeColor=inherit;connectable=0;fillColor=none;startSize=40;collapsible=0;recursiveResize=0;expand=0;" vertex="1" parent="wp4WdSBtoDWt7Q6JzphJ-2">
          <mxGeometry x="510" width="236" height="120" as="geometry">
            <mxRectangle width="236" height="120" as="alternateBounds" />
          </mxGeometry>
        </mxCell>
        <mxCell id="wp4WdSBtoDWt7Q6JzphJ-6" value="" style="swimlane;swimlaneHead=0;swimlaneBody=0;fontStyle=0;strokeColor=inherit;connectable=0;fillColor=none;startSize=40;collapsible=0;recursiveResize=0;expand=0;" vertex="1" parent="wp4WdSBtoDWt7Q6JzphJ-2">
          <mxGeometry x="746" width="234" height="120" as="geometry">
            <mxRectangle width="234" height="120" as="alternateBounds" />
          </mxGeometry>
        </mxCell>
        <mxCell id="wp4WdSBtoDWt7Q6JzphJ-7" value="" style="shape=tableRow;horizontal=0;swimlaneHead=0;swimlaneBody=0;top=0;left=0;strokeColor=inherit;bottom=0;right=0;dropTarget=0;fontStyle=0;fillColor=none;points=[[0,0.5],[1,0.5]];portConstraint=eastwest;startSize=40;collapsible=0;recursiveResize=0;expand=0;" vertex="1" parent="wp4WdSBtoDWt7Q6JzphJ-1">
          <mxGeometry y="160" width="980" height="120" as="geometry" />
        </mxCell>
        <mxCell id="wp4WdSBtoDWt7Q6JzphJ-8" value="" style="swimlane;swimlaneHead=0;swimlaneBody=0;fontStyle=0;connectable=0;strokeColor=inherit;fillColor=none;startSize=0;collapsible=0;recursiveResize=0;expand=0;" vertex="1" parent="wp4WdSBtoDWt7Q6JzphJ-7">
          <mxGeometry x="40" width="236" height="120" as="geometry">
            <mxRectangle width="236" height="120" as="alternateBounds" />
          </mxGeometry>
        </mxCell>
        <mxCell id="wp4WdSBtoDWt7Q6JzphJ-9" value="" style="swimlane;swimlaneHead=0;swimlaneBody=0;fontStyle=0;connectable=0;strokeColor=inherit;fillColor=none;startSize=0;collapsible=0;recursiveResize=0;expand=0;" vertex="1" parent="wp4WdSBtoDWt7Q6JzphJ-7">
          <mxGeometry x="276" width="234" height="120" as="geometry">
            <mxRectangle width="234" height="120" as="alternateBounds" />
          </mxGeometry>
        </mxCell>
        <mxCell id="wp4WdSBtoDWt7Q6JzphJ-10" value="" style="swimlane;swimlaneHead=0;swimlaneBody=0;fontStyle=0;connectable=0;strokeColor=inherit;fillColor=none;startSize=0;collapsible=0;recursiveResize=0;expand=0;" vertex="1" parent="wp4WdSBtoDWt7Q6JzphJ-7">
          <mxGeometry x="510" width="236" height="120" as="geometry">
            <mxRectangle width="236" height="120" as="alternateBounds" />
          </mxGeometry>
        </mxCell>
        <mxCell id="wp4WdSBtoDWt7Q6JzphJ-11" value="" style="swimlane;swimlaneHead=0;swimlaneBody=0;fontStyle=0;connectable=0;strokeColor=inherit;fillColor=none;startSize=0;collapsible=0;recursiveResize=0;expand=0;" vertex="1" parent="wp4WdSBtoDWt7Q6JzphJ-7">
          <mxGeometry x="746" width="234" height="120" as="geometry">
            <mxRectangle width="234" height="120" as="alternateBounds" />
          </mxGeometry>
        </mxCell>
        <mxCell id="wp4WdSBtoDWt7Q6JzphJ-12" value="" style="shape=tableRow;horizontal=0;swimlaneHead=0;swimlaneBody=0;top=0;left=0;strokeColor=inherit;bottom=0;right=0;dropTarget=0;fontStyle=0;fillColor=none;points=[[0,0.5],[1,0.5]];portConstraint=eastwest;startSize=40;collapsible=0;recursiveResize=0;expand=0;" vertex="1" parent="wp4WdSBtoDWt7Q6JzphJ-1">
          <mxGeometry y="280" width="980" height="120" as="geometry" />
        </mxCell>
        <mxCell id="wp4WdSBtoDWt7Q6JzphJ-13" value="" style="swimlane;swimlaneHead=0;swimlaneBody=0;fontStyle=0;connectable=0;strokeColor=inherit;fillColor=none;startSize=0;collapsible=0;recursiveResize=0;expand=0;" vertex="1" parent="wp4WdSBtoDWt7Q6JzphJ-12">
          <mxGeometry x="40" width="236" height="120" as="geometry">
            <mxRectangle width="236" height="120" as="alternateBounds" />
          </mxGeometry>
        </mxCell>
        <mxCell id="wp4WdSBtoDWt7Q6JzphJ-14" value="" style="swimlane;swimlaneHead=0;swimlaneBody=0;fontStyle=0;connectable=0;strokeColor=inherit;fillColor=none;startSize=0;collapsible=0;recursiveResize=0;expand=0;" vertex="1" parent="wp4WdSBtoDWt7Q6JzphJ-12">
          <mxGeometry x="276" width="234" height="120" as="geometry">
            <mxRectangle width="234" height="120" as="alternateBounds" />
          </mxGeometry>
        </mxCell>
        <mxCell id="wp4WdSBtoDWt7Q6JzphJ-15" value="" style="swimlane;swimlaneHead=0;swimlaneBody=0;fontStyle=0;connectable=0;strokeColor=inherit;fillColor=none;startSize=0;collapsible=0;recursiveResize=0;expand=0;" vertex="1" parent="wp4WdSBtoDWt7Q6JzphJ-12">
          <mxGeometry x="510" width="236" height="120" as="geometry">
            <mxRectangle width="236" height="120" as="alternateBounds" />
          </mxGeometry>
        </mxCell>
        <mxCell id="wp4WdSBtoDWt7Q6JzphJ-16" value="" style="swimlane;swimlaneHead=0;swimlaneBody=0;fontStyle=0;connectable=0;strokeColor=inherit;fillColor=none;startSize=0;collapsible=0;recursiveResize=0;expand=0;" vertex="1" parent="wp4WdSBtoDWt7Q6JzphJ-12">
          <mxGeometry x="746" width="234" height="120" as="geometry">
            <mxRectangle width="234" height="120" as="alternateBounds" />
          </mxGeometry>
        </mxCell>
        <mxCell id="wp4WdSBtoDWt7Q6JzphJ-17" value="" style="shape=tableRow;horizontal=0;swimlaneHead=0;swimlaneBody=0;top=0;left=0;strokeColor=inherit;bottom=0;right=0;dropTarget=0;fontStyle=0;fillColor=none;points=[[0,0.5],[1,0.5]];portConstraint=eastwest;startSize=40;collapsible=0;recursiveResize=0;expand=0;" vertex="1" parent="wp4WdSBtoDWt7Q6JzphJ-1">
          <mxGeometry y="400" width="980" height="120" as="geometry" />
        </mxCell>
        <mxCell id="wp4WdSBtoDWt7Q6JzphJ-18" value="" style="swimlane;swimlaneHead=0;swimlaneBody=0;fontStyle=0;connectable=0;strokeColor=inherit;fillColor=none;startSize=0;collapsible=0;recursiveResize=0;expand=0;" vertex="1" parent="wp4WdSBtoDWt7Q6JzphJ-17">
          <mxGeometry x="40" width="236" height="120" as="geometry">
            <mxRectangle width="236" height="120" as="alternateBounds" />
          </mxGeometry>
        </mxCell>
        <mxCell id="wp4WdSBtoDWt7Q6JzphJ-19" value="" style="swimlane;swimlaneHead=0;swimlaneBody=0;fontStyle=0;connectable=0;strokeColor=inherit;fillColor=none;startSize=0;collapsible=0;recursiveResize=0;expand=0;" vertex="1" parent="wp4WdSBtoDWt7Q6JzphJ-17">
          <mxGeometry x="276" width="234" height="120" as="geometry">
            <mxRectangle width="234" height="120" as="alternateBounds" />
          </mxGeometry>
        </mxCell>
        <mxCell id="wp4WdSBtoDWt7Q6JzphJ-20" value="" style="swimlane;swimlaneHead=0;swimlaneBody=0;fontStyle=0;connectable=0;strokeColor=inherit;fillColor=none;startSize=0;collapsible=0;recursiveResize=0;expand=0;" vertex="1" parent="wp4WdSBtoDWt7Q6JzphJ-17">
          <mxGeometry x="510" width="236" height="120" as="geometry">
            <mxRectangle width="236" height="120" as="alternateBounds" />
          </mxGeometry>
        </mxCell>
        <mxCell id="wp4WdSBtoDWt7Q6JzphJ-21" value="" style="swimlane;swimlaneHead=0;swimlaneBody=0;fontStyle=0;connectable=0;strokeColor=inherit;fillColor=none;startSize=0;collapsible=0;recursiveResize=0;expand=0;" vertex="1" parent="wp4WdSBtoDWt7Q6JzphJ-17">
          <mxGeometry x="746" width="234" height="120" as="geometry">
            <mxRectangle width="234" height="120" as="alternateBounds" />
          </mxGeometry>
        </mxCell>
      </root>
    </mxGraphModel>
  </diagram>
</mxfile>
